<svg xmlns="http://www.w3.org/2000/svg" width="1080" height="1080" viewBox="0 0 1080 1080"><defs><linearGradient id="g2" x1="330" y1="230" x2="765" y2="635" gradientUnits="userSpaceOnUse"><stop stop-color="#2563EB"/><stop offset="1" stop-color="#10B981"/></linearGradient></defs><rect width="1080" height="1080" rx="220" fill="#101828"/><circle cx="540" cy="540" r="360" fill="#fff"/><g transform="translate(-164.8275862068965 -11.781609195402325) scale(1.2873563218390804)"><path d="M330 345 L765 230 L624 635 L540 475 L424 595 L475 430 Z" fill="url(#g2)"/><path d="M475 430 L765 230 L540 475 Z" fill="#FFFFFF" opacity="0.30"/><g transform="translate(428 250) rotate(-9)"><path d="M0 65 L112 20 L224 65 L112 110 Z" fill="#101828"/><path d="M55 95 C85 120 140 120 170 95 L170 146 C130 171 95 171 55 146 Z" fill="#101828"/><path d="M224 65 L224 132" stroke="#10B981" stroke-width="11" stroke-linecap="round"/><circle cx="224" cy="148" r="16" fill="#10B981"/></g></g></svg>